{
	"asset":{
		"version":"2.0",
		"generator":"Maxon Cinema 4D 2024.5.1 (#200000219)"
	},
	"scenes":[{
		"nodes":[0]
	}],
	"buffers":[{
		"uri":"data:application/octet-stream;base64,",
		"byteLength":631788
	},
	{
		"uri":"data:application/octet-stream;base64,",
		"byteLength":512244
	},
	{
		"uri":"data:application/octet-stream;base64,",
		"byteLength":510408
	}],
	"nodes":[{
		"name":"land",
		"translation":[0.07032402604818344,
		0.0,
		-0.05424996465444565],
		"rotation":[0.0,
		0.0,
		0.0,
		-1.0],
		"scale":[1.0,
		1.0,
		1.0],
		"children":[1]
	},
	{
		"name":"dang -mad",
		"translation":[2.0714519023895265,
		0.09904910624027252,
		-2.8375399112701418],
		"rotation":[0.0,
		0.0,
		0.0,
		-1.0],
		"scale":[1.0,
		1.5,
		1.0],
		"children":[2,
		3,
		4]
	},
	{
		"name":"Extrude",
		"mesh":0,
		"translation":[-0.9818501472473145,
		0.12379293143749237,
		2.435960054397583],
		"rotation":[0.0,
		0.0,
		0.0,
		-1.0],
		"scale":[1.0,
		1.0,
		1.0]
	},
	{
		"name":"Extrude",
		"mesh":1,
		"translation":[-0.9818501472473145,
		0.12379293143749237,
		2.435960054397583],
		"rotation":[0.0,
		0.0,
		0.0,
		-1.0],
		"scale":[1.0,
		1.0,
		1.0]
	},
	{
		"name":"Extrude",
		"mesh":2,
		"translation":[-0.9818501472473145,
		0.12379293143749237,
		2.435960054397583],
		"rotation":[0.0,
		0.0,
		0.0,
		-1.0],
		"scale":[1.0,
		1.0,
		1.0]
	}],
	"meshes":[{
		"name":"Extrude",
		"primitives":[{
			"attributes":{
				"POSITION":1,
				"NORMAL":2,
				"TEXCOORD_0":3
			},
			"indices":0
		}]
	},
	{
		"name":"Extrude",
		"primitives":[{
			"attributes":{
				"POSITION":5,
				"NORMAL":6,
				"TEXCOORD_0":7
			},
			"indices":4
		}]
	},
	{
		"name":"Extrude",
		"primitives":[{
			"attributes":{
				"POSITION":9,
				"NORMAL":10,
				"TEXCOORD_0":11
			},
			"indices":8
		}]
	}],
	"accessors":[{
		"bufferView":0,
		"componentType":5123,
		"type":"SCALAR",
		"max":[18581],
		"count":18582,
		"byteOffset":0,
		"min":[0]
	},
	{
		"bufferView":1,
		"componentType":5126,
		"type":"VEC3",
		"max":[2.7196991443634035,
		-0.12999999523162843,
		-0.6668233871459961],
		"count":18582,
		"byteOffset":0,
		"min":[-0.826328694820404,
		-0.3200688064098358,
		-2.412348747253418]
	},
	{
		"bufferView":1,
		"componentType":5126,
		"type":"VEC3",
		"max":[0.9999855756759644,
		1.0,
		0.9999855756759644],
		"count":18582,
		"byteOffset":12,
		"min":[-0.9999855756759644,
		-1.0,
		-0.9999855756759644]
	},
	{
		"bufferView":1,
		"componentType":5126,
		"type":"VEC2",
		"max":[1.0,
		0.966152548789978],
		"count":18582,
		"byteOffset":24,
		"min":[0.0,
		0.03384748101234436]
	},
	{
		"bufferView":2,
		"componentType":5123,
		"type":"SCALAR",
		"max":[15065],
		"count":15066,
		"byteOffset":0,
		"min":[0]
	},
	{
		"bufferView":3,
		"componentType":5126,
		"type":"VEC3",
		"max":[1.5926669836044312,
		-0.12992657721042634,
		-2.4556961059570314],
		"count":15066,
		"byteOffset":0,
		"min":[-0.826328694820404,
		-0.3199999928474426,
		-3.7550604343414308]
	},
	{
		"bufferView":3,
		"componentType":5126,
		"type":"VEC3",
		"max":[0.9999855756759644,
		0.9999994039535523,
		0.9999855756759644],
		"count":15066,
		"byteOffset":12,
		"min":[-0.9999860525131226,
		-0.9999992847442627,
		-0.9999914169311523]
	},
	{
		"bufferView":3,
		"componentType":5126,
		"type":"VEC2",
		"max":[0.9996952414512634,
		0.9833065271377564],
		"count":15066,
		"byteOffset":24,
		"min":[-0.00030475418316200376,
		0.016693472862243654]
	},
	{
		"bufferView":4,
		"componentType":5123,
		"type":"SCALAR",
		"max":[15011],
		"count":15012,
		"byteOffset":0,
		"min":[0]
	},
	{
		"bufferView":5,
		"componentType":5126,
		"type":"VEC3",
		"max":[3.160573720932007,
		-0.12993766367435456,
		-2.4556961059570314],
		"count":15012,
		"byteOffset":0,
		"min":[1.6360143423080445,
		-0.3200734257698059,
		-4.283687114715576]
	},
	{
		"bufferView":5,
		"componentType":5126,
		"type":"VEC3",
		"max":[0.9999879598617554,
		0.9999998807907105,
		0.9999855756759644],
		"count":15012,
		"byteOffset":12,
		"min":[-0.9999855756759644,
		-0.9999991655349731,
		-0.9999914169311523]
	},
	{
		"bufferView":5,
		"componentType":5126,
		"type":"VEC2",
		"max":[0.9995269775390625,
		0.9833065271377564],
		"count":15012,
		"byteOffset":24,
		"min":[-0.00047303689643740654,
		0.016693472862243654]
	}],
	"bufferViews":[{
		"buffer":0,
		"byteOffset":0,
		"byteLength":37164,
		"target":34963
	},
	{
		"buffer":0,
		"byteOffset":37164,
		"byteLength":594624,
		"target":34962,
		"byteStride":32
	},
	{
		"buffer":1,
		"byteOffset":0,
		"byteLength":30132,
		"target":34963
	},
	{
		"buffer":1,
		"byteOffset":30132,
		"byteLength":482112,
		"target":34962,
		"byteStride":32
	},
	{
		"buffer":2,
		"byteOffset":0,
		"byteLength":30024,
		"target":34963
	},
	{
		"buffer":2,
		"byteOffset":30024,
		"byteLength":480384,
		"target":34962,
		"byteStride":32
	}]
}