{
	"asset":{
		"version":"2.0",
		"generator":"Maxon Cinema 4D 2024.5.1 (#200000219)"
	},
	"scenes":[{
		"nodes":[0]
	}],
	"buffers":[{
		"uri":"data:application/octet-stream;base64,",
		"byteLength":764592
	},
	{
		"uri":"data:application/octet-stream;base64,",
		"byteLength":510408
	},
	{
		"uri":"data:application/octet-stream;base64,",
		"byteLength":394944
	}],
	"nodes":[{
		"name":"land",
		"translation":[0.07032402604818344,
		0.0,
		-0.05424996465444565],
		"rotation":[0.0,
		0.0,
		0.0,
		-1.0],
		"scale":[1.0,
		1.0,
		1.0],
		"children":[1]
	},
	{
		"name":"gab -sur",
		"translation":[-2.622107982635498,
		0.12283886224031449,
		0.1957952231168747],
		"rotation":[0.0,
		0.0,
		0.0,
		-1.0],
		"scale":[1.0,
		1.5,
		1.0],
		"children":[2,
		3,
		4]
	},
	{
		"name":"Extrude",
		"mesh":0,
		"translation":[3.71170973777771,
		0.10793309658765793,
		-0.5973750352859497],
		"rotation":[0.0,
		0.0,
		0.0,
		-1.0],
		"scale":[1.0,
		1.0,
		1.0]
	},
	{
		"name":"Extrude",
		"mesh":1,
		"translation":[3.71170973777771,
		0.10793309658765793,
		-0.5973750352859497],
		"rotation":[0.0,
		0.0,
		0.0,
		-1.0],
		"scale":[1.0,
		1.0,
		1.0]
	},
	{
		"name":"Extrude",
		"mesh":2,
		"translation":[3.71170973777771,
		0.10793309658765793,
		-0.5973750352859497],
		"rotation":[0.0,
		0.0,
		0.0,
		-1.0],
		"scale":[1.0,
		1.0,
		1.0]
	}],
	"meshes":[{
		"name":"Extrude",
		"primitives":[{
			"attributes":{
				"POSITION":1,
				"NORMAL":2,
				"TEXCOORD_0":3
			},
			"indices":0
		}]
	},
	{
		"name":"Extrude",
		"primitives":[{
			"attributes":{
				"POSITION":5,
				"NORMAL":6,
				"TEXCOORD_0":7
			},
			"indices":4
		}]
	},
	{
		"name":"Extrude",
		"primitives":[{
			"attributes":{
				"POSITION":9,
				"NORMAL":10,
				"TEXCOORD_0":11
			},
			"indices":8
		}]
	}],
	"accessors":[{
		"bufferView":0,
		"componentType":5123,
		"type":"SCALAR",
		"max":[22487],
		"count":22488,
		"byteOffset":0,
		"min":[0]
	},
	{
		"bufferView":1,
		"componentType":5126,
		"type":"VEC3",
		"max":[-2.4693005084991457,
		-0.12992657721042634,
		2.627578020095825],
		"count":22488,
		"byteOffset":0,
		"min":[-5.3598313331604,
		-0.3200734257698059,
		0.8957971334457398]
	},
	{
		"bufferView":1,
		"componentType":5126,
		"type":"VEC3",
		"max":[0.9999879598617554,
		0.9999995231628418,
		0.9999855756759644],
		"count":22488,
		"byteOffset":12,
		"min":[-0.9999855756759644,
		-0.9999996423721314,
		-0.9999889135360718]
	},
	{
		"bufferView":1,
		"componentType":5126,
		"type":"VEC2",
		"max":[0.999323844909668,
		0.9666130542755127],
		"count":22488,
		"byteOffset":24,
		"min":[-0.0006761325057595968,
		0.033386945724487308]
	},
	{
		"bufferView":2,
		"componentType":5123,
		"type":"SCALAR",
		"max":[15011],
		"count":15012,
		"byteOffset":0,
		"min":[0]
	},
	{
		"bufferView":3,
		"componentType":5126,
		"type":"VEC3",
		"max":[-1.9850784540176392,
		-0.12999999523162843,
		0.8524497151374817],
		"count":15012,
		"byteOffset":0,
		"min":[-3.4039125442504885,
		-0.3199999928474426,
		-0.8751022815704346]
	},
	{
		"bufferView":3,
		"componentType":5126,
		"type":"VEC3",
		"max":[0.9999855756759644,
		0.9999985694885254,
		0.9999855756759644],
		"count":15012,
		"byteOffset":12,
		"min":[-0.9999855756759644,
		-0.9999967813491821,
		-0.9999921321868897]
	},
	{
		"bufferView":3,
		"componentType":5126,
		"type":"VEC2",
		"max":[0.9996640086174011,
		0.9888709783554077],
		"count":15012,
		"byteOffset":24,
		"min":[-0.00033602150506339967,
		0.011128982529044152]
	},
	{
		"bufferView":4,
		"componentType":5123,
		"type":"SCALAR",
		"max":[11615],
		"count":11616,
		"byteOffset":0,
		"min":[0]
	},
	{
		"bufferView":5,
		"componentType":5126,
		"type":"VEC3",
		"max":[-3.4472599029541017,
		-0.12999999523162843,
		0.9211711883544922],
		"count":11616,
		"byteOffset":0,
		"min":[-5.6410603523254398,
		-0.3200216293334961,
		-0.8751022815704346]
	},
	{
		"bufferView":5,
		"componentType":5126,
		"type":"VEC3",
		"max":[0.9999855756759644,
		0.9999957084655762,
		0.9999887943267822],
		"count":11616,
		"byteOffset":12,
		"min":[-0.9999855756759644,
		-0.9999996423721314,
		-0.9999921321868897]
	},
	{
		"bufferView":5,
		"componentType":5126,
		"type":"VEC2",
		"max":[0.9997350573539734,
		0.9888709783554077],
		"count":11616,
		"byteOffset":24,
		"min":[-0.000958693737629801,
		0.011128982529044152]
	}],
	"bufferViews":[{
		"buffer":0,
		"byteOffset":0,
		"byteLength":44976,
		"target":34963
	},
	{
		"buffer":0,
		"byteOffset":44976,
		"byteLength":719616,
		"target":34962,
		"byteStride":32
	},
	{
		"buffer":1,
		"byteOffset":0,
		"byteLength":30024,
		"target":34963
	},
	{
		"buffer":1,
		"byteOffset":30024,
		"byteLength":480384,
		"target":34962,
		"byteStride":32
	},
	{
		"buffer":2,
		"byteOffset":0,
		"byteLength":23232,
		"target":34963
	},
	{
		"buffer":2,
		"byteOffset":23232,
		"byteLength":371712,
		"target":34962,
		"byteStride":32
	}]
}