{
	"asset":{
		"version":"2.0",
		"generator":"Maxon Cinema 4D 2024.5.1 (#200000219)"
	},
	"scenes":[{
		"nodes":[0]
	}],
	"buffers":[{
		"uri":"data:application/octet-stream;base64,",
		"byteLength":943092
	},
	{
		"uri":"data:application/octet-stream;base64,",
		"byteLength":806412
	}],
	"nodes":[{
		"name":"land",
		"translation":[0.07032402604818344,
		0.0,
		-0.05424996465444565],
		"rotation":[0.0,
		0.0,
		0.0,
		-1.0],
		"scale":[1.0,
		1.0,
		1.0],
		"children":[1]
	},
	{
		"name":"nol - joy",
		"translation":[-1.4253369569778443,
		0.12283886224031449,
		-3.052483320236206],
		"rotation":[0.0,
		0.0,
		0.0,
		-1.0],
		"scale":[1.0,
		1.5,
		1.0],
		"children":[2,
		3]
	},
	{
		"name":"Extrude",
		"mesh":0,
		"translation":[2.5149385929107668,
		0.10793309658765793,
		2.6509034633636476],
		"rotation":[0.0,
		0.0,
		0.0,
		-1.0],
		"scale":[1.0,
		1.0,
		1.0]
	},
	{
		"name":"Extrude",
		"mesh":1,
		"translation":[2.5149385929107668,
		0.10793309658765793,
		2.6509034633636476],
		"rotation":[0.0,
		0.0,
		0.0,
		-1.0],
		"scale":[1.0,
		1.0,
		1.0]
	}],
	"meshes":[{
		"name":"Extrude",
		"primitives":[{
			"attributes":{
				"POSITION":1,
				"NORMAL":2,
				"TEXCOORD_0":3
			},
			"indices":0
		}]
	},
	{
		"name":"Extrude",
		"primitives":[{
			"attributes":{
				"POSITION":5,
				"NORMAL":6,
				"TEXCOORD_0":7
			},
			"indices":4
		}]
	}],
	"accessors":[{
		"bufferView":0,
		"componentType":5123,
		"type":"SCALAR",
		"max":[27737],
		"count":27738,
		"byteOffset":0,
		"min":[0]
	},
	{
		"bufferView":1,
		"componentType":5126,
		"type":"VEC3",
		"max":[-0.8612180948257446,
		-0.12992657721042634,
		-2.9272310733795168],
		"count":27738,
		"byteOffset":0,
		"min":[-4.774112701416016,
		-0.3200734257698059,
		-4.755222320556641]
	},
	{
		"bufferView":1,
		"componentType":5126,
		"type":"VEC3",
		"max":[0.9999855756759644,
		0.9999996423721314,
		0.9999889135360718],
		"count":27738,
		"byteOffset":12,
		"min":[-0.9999871253967285,
		-1.0,
		-0.9999914169311523]
	},
	{
		"bufferView":1,
		"componentType":5126,
		"type":"VEC2",
		"max":[0.9998090267181397,
		1.0009593963623047],
		"count":27738,
		"byteOffset":24,
		"min":[-0.0001910341379698366,
		0.016693472862243654]
	},
	{
		"bufferView":2,
		"componentType":5123,
		"type":"SCALAR",
		"max":[23717],
		"count":23718,
		"byteOffset":0,
		"min":[0]
	},
	{
		"bufferView":3,
		"componentType":5126,
		"type":"VEC3",
		"max":[-0.8612180948257446,
		-0.12997835874557496,
		-0.9184496998786926],
		"count":23718,
		"byteOffset":0,
		"min":[-4.355440616607666,
		-0.32001397013664248,
		-2.8838837146759035]
	},
	{
		"bufferView":3,
		"componentType":5126,
		"type":"VEC3",
		"max":[0.9999855756759644,
		0.9999994039535523,
		0.9999860525131226],
		"count":23718,
		"byteOffset":12,
		"min":[-0.9999855756759644,
		-0.9999994039535523,
		-0.9999921321868897]
	},
	{
		"bufferView":3,
		"componentType":5126,
		"type":"VEC2",
		"max":[0.9999001026153565,
		0.9888709783554077],
		"count":23718,
		"byteOffset":24,
		"min":[-0.00009994003630708903,
		0.011128982529044152]
	}],
	"bufferViews":[{
		"buffer":0,
		"byteOffset":0,
		"byteLength":55476,
		"target":34963
	},
	{
		"buffer":0,
		"byteOffset":55476,
		"byteLength":887616,
		"target":34962,
		"byteStride":32
	},
	{
		"buffer":1,
		"byteOffset":0,
		"byteLength":47436,
		"target":34963
	},
	{
		"buffer":1,
		"byteOffset":47436,
		"byteLength":758976,
		"target":34962,
		"byteStride":32
	}]
}