{
	"asset":{
		"version":"2.0",
		"generator":"Maxon Cinema 4D 2024.5.1 (#200000219)"
	},
	"scenes":[{
		"nodes":[0]
	}],
	"buffers":[{
		"uri":"data:application/octet-stream;base64,",
		"byteLength":516120
	},
	{
		"uri":"data:application/octet-stream;base64,",
		"byteLength":795600
	}],
	"nodes":[{
		"name":"land",
		"translation":[0.07032402604818344,
		0.0,
		-0.05424996465444565],
		"rotation":[0.0,
		0.0,
		0.0,
		-1.0],
		"scale":[1.0,
		1.0,
		1.0],
		"children":[1]
	},
	{
		"name":"seo - love",
		"translation":[-0.17120280861854554,
		0.11198490113019943,
		3.0275678634643556],
		"rotation":[0.0,
		-0.0007710749050602317,
		0.0,
		-0.9999997019767761],
		"scale":[1.0,
		1.5,
		1.0],
		"children":[2,
		3]
	},
	{
		"name":"Extrude",
		"mesh":0,
		"translation":[-0.1320551186800003,
		0.11498381942510605,
		0.29266196489334109],
		"rotation":[0.0,
		-2.168404344971009e-19,
		0.0,
		-1.0],
		"scale":[1.0,
		1.0,
		1.0]
	},
	{
		"name":"Extrude",
		"mesh":1,
		"translation":[-0.1320551186800003,
		0.11498381942510605,
		0.29266196489334109],
		"rotation":[0.0,
		-2.168404344971009e-19,
		0.0,
		-1.0],
		"scale":[1.0,
		1.0,
		1.0]
	}],
	"meshes":[{
		"name":"Extrude",
		"primitives":[{
			"attributes":{
				"POSITION":1,
				"NORMAL":2,
				"TEXCOORD_0":3
			},
			"indices":0
		}]
	},
	{
		"name":"Extrude",
		"primitives":[{
			"attributes":{
				"POSITION":5,
				"NORMAL":6,
				"TEXCOORD_0":7
			},
			"indices":4
		}]
	}],
	"accessors":[{
		"bufferView":0,
		"componentType":5123,
		"type":"SCALAR",
		"max":[15179],
		"count":15180,
		"byteOffset":0,
		"min":[0]
	},
	{
		"bufferView":1,
		"componentType":5126,
		"type":"VEC3",
		"max":[1.377785086631775,
		-0.12997835874557496,
		1.6318130493164063],
		"count":15180,
		"byteOffset":0,
		"min":[-0.045277904719114307,
		-0.3200734257698059,
		-1.9808217287063599]
	},
	{
		"bufferView":1,
		"componentType":5126,
		"type":"VEC3",
		"max":[0.9999855756759644,
		0.9999995231628418,
		0.9999868869781494],
		"count":15180,
		"byteOffset":12,
		"min":[-0.999987006187439,
		-1.0,
		-0.9999963045120239]
	},
	{
		"bufferView":1,
		"componentType":5126,
		"type":"VEC2",
		"max":[0.9998950362205505,
		0.9944354295730591],
		"count":15180,
		"byteOffset":24,
		"min":[-0.00010497585753910244,
		0.005564491264522076]
	},
	{
		"bufferView":2,
		"componentType":5123,
		"type":"SCALAR",
		"max":[23399],
		"count":23400,
		"byteOffset":0,
		"min":[0]
	},
	{
		"bufferView":3,
		"componentType":5126,
		"type":"VEC3",
		"max":[0.3998257517814636,
		-0.12995247542858125,
		1.9701341390609742],
		"count":23400,
		"byteOffset":0,
		"min":[-1.5190891027450562,
		-0.320047527551651,
		-1.9808217287063599]
	},
	{
		"bufferView":3,
		"componentType":5126,
		"type":"VEC3",
		"max":[0.9999856948852539,
		0.9999990463256836,
		0.9999871253967285],
		"count":23400,
		"byteOffset":12,
		"min":[-0.9999885559082031,
		-1.0,
		-0.9999921321868897]
	},
	{
		"bufferView":3,
		"componentType":5126,
		"type":"VEC2",
		"max":[0.9998560547828674,
		0.9888709783554077],
		"count":23400,
		"byteOffset":24,
		"min":[-0.00014396769984159619,
		-0.0009586936794221401]
	}],
	"bufferViews":[{
		"buffer":0,
		"byteOffset":0,
		"byteLength":30360,
		"target":34963
	},
	{
		"buffer":0,
		"byteOffset":30360,
		"byteLength":485760,
		"target":34962,
		"byteStride":32
	},
	{
		"buffer":1,
		"byteOffset":0,
		"byteLength":46800,
		"target":34963
	},
	{
		"buffer":1,
		"byteOffset":46800,
		"byteLength":748800,
		"target":34962,
		"byteStride":32
	}]
}