{
	"asset":{
		"version":"2.0",
		"generator":"Maxon Cinema 4D 2024.5.1 (#200000219)"
	},
	"scenes":[{
		"nodes":[0]
	}],
	"buffers":[{
		"uri":"data:application/octet-stream;base64,",
		"byteLength":641784
	},
	{
		"uri":"data:application/octet-stream;base64,",
		"byteLength":763572
	},
	{
		"uri":"data:application/octet-stream;base64,",
		"byteLength":672180
	}],
	"nodes":[{
		"name":"land",
		"translation":[0.07032402604818344,
		0.0,
		-0.05424996465444565],
		"rotation":[0.0,
		0.0,
		0.0,
		-1.0],
		"scale":[1.0,
		1.0,
		1.0],
		"children":[1]
	},
	{
		"name":"yang - sad",
		"translation":[2.935041904449463,
		0.0812067911028862,
		0.6451605558395386],
		"rotation":[0.0,
		0.0,
		0.0,
		-1.0],
		"scale":[1.0,
		1.5,
		1.0],
		"children":[2,
		3,
		4]
	},
	{
		"name":"Extrude",
		"translation":[-1.8434118032455445,
		0.13541840016841889,
		-1.0494483709335328],
		"rotation":[0.0,
		-0.0007878870819695294,
		0.0,
		0.9999997019767761],
		"scale":[1.0,
		1.0,
		1.0],
		"children":[5]
	},
	{
		"name":"Extrude",
		"translation":[-1.8434118032455445,
		0.13541840016841889,
		-1.0494483709335328],
		"rotation":[0.0,
		-0.0007878870819695294,
		0.0,
		0.9999997019767761],
		"scale":[1.0,
		1.0,
		1.0],
		"children":[6]
	},
	{
		"name":"Extrude",
		"translation":[-1.8434118032455445,
		0.13541840016841889,
		-1.0494483709335328],
		"rotation":[0.0,
		-0.0007878870819695294,
		0.0,
		0.9999997019767761],
		"scale":[1.0,
		1.0,
		1.0],
		"children":[7]
	},
	{
		"name":"Extrude",
		"mesh":0
	},
	{
		"name":"Extrude",
		"mesh":1
	},
	{
		"name":"Extrude",
		"mesh":2
	}],
	"meshes":[{
		"name":"Extrude",
		"primitives":[{
			"attributes":{
				"POSITION":1,
				"NORMAL":2,
				"TEXCOORD_0":3
			},
			"indices":0
		}]
	},
	{
		"name":"Extrude",
		"primitives":[{
			"attributes":{
				"POSITION":5,
				"NORMAL":6,
				"TEXCOORD_0":7
			},
			"indices":4
		}]
	},
	{
		"name":"Extrude",
		"primitives":[{
			"attributes":{
				"POSITION":9,
				"NORMAL":10,
				"TEXCOORD_0":11
			},
			"indices":8
		}]
	}],
	"accessors":[{
		"bufferView":0,
		"componentType":5123,
		"type":"SCALAR",
		"max":[18875],
		"count":18876,
		"byteOffset":0,
		"min":[0]
	},
	{
		"bufferView":1,
		"componentType":5126,
		"type":"VEC3",
		"max":[3.257841110229492,
		-0.12999999523162843,
		3.2492430210113527],
		"count":18876,
		"byteOffset":0,
		"min":[0.011015948839485646,
		-0.3199999928474426,
		1.3239847421646119]
	},
	{
		"bufferView":1,
		"componentType":5126,
		"type":"VEC3",
		"max":[0.9999855756759644,
		0.9999995231628418,
		0.9999855756759644],
		"count":18876,
		"byteOffset":12,
		"min":[-0.9999855756759644,
		-0.9999995231628418,
		-0.9999855756759644]
	},
	{
		"bufferView":1,
		"componentType":5126,
		"type":"VEC2",
		"max":[1.0,
		0.9473683834075928],
		"count":18876,
		"byteOffset":24,
		"min":[0.0,
		0.05263157933950424]
	},
	{
		"bufferView":2,
		"componentType":5123,
		"type":"SCALAR",
		"max":[22457],
		"count":22458,
		"byteOffset":0,
		"min":[0]
	},
	{
		"bufferView":3,
		"componentType":5126,
		"type":"VEC3",
		"max":[3.782238721847534,
		-0.12996184825897218,
		1.2795801162719727],
		"count":22458,
		"byteOffset":0,
		"min":[2.376091718673706,
		-0.3200381398200989,
		-0.6319340467453003]
	},
	{
		"bufferView":3,
		"componentType":5126,
		"type":"VEC3",
		"max":[0.9999855756759644,
		0.9999995231628418,
		0.9999885559082031],
		"count":22458,
		"byteOffset":12,
		"min":[-0.9999855756759644,
		-1.0,
		-0.9999921321868897]
	},
	{
		"bufferView":3,
		"componentType":5126,
		"type":"VEC2",
		"max":[0.999724805355072,
		0.9888709783554077],
		"count":22458,
		"byteOffset":24,
		"min":[-0.00027517887065187097,
		0.011128982529044152]
	},
	{
		"bufferView":4,
		"componentType":5123,
		"type":"SCALAR",
		"max":[19769],
		"count":19770,
		"byteOffset":0,
		"min":[0]
	},
	{
		"bufferView":5,
		"componentType":5126,
		"type":"VEC3",
		"max":[2.3327443599700929,
		-0.1299891173839569,
		1.2785228490829468],
		"count":19770,
		"byteOffset":0,
		"min":[0.011015948839485646,
		-0.3200110197067261,
		-0.6319340467453003]
	},
	{
		"bufferView":5,
		"componentType":5126,
		"type":"VEC3",
		"max":[0.9999855756759644,
		1.0,
		0.9999855756759644],
		"count":19770,
		"byteOffset":12,
		"min":[-0.9999855756759644,
		-1.0,
		-0.9999855756759644]
	},
	{
		"bufferView":5,
		"componentType":5126,
		"type":"VEC2",
		"max":[1.0,
		0.9526200294494629],
		"count":19770,
		"byteOffset":24,
		"min":[0.0,
		0.047379933297634128]
	}],
	"bufferViews":[{
		"buffer":0,
		"byteOffset":0,
		"byteLength":37752,
		"target":34963
	},
	{
		"buffer":0,
		"byteOffset":37752,
		"byteLength":604032,
		"target":34962,
		"byteStride":32
	},
	{
		"buffer":1,
		"byteOffset":0,
		"byteLength":44916,
		"target":34963
	},
	{
		"buffer":1,
		"byteOffset":44916,
		"byteLength":718656,
		"target":34962,
		"byteStride":32
	},
	{
		"buffer":2,
		"byteOffset":0,
		"byteLength":39540,
		"target":34963
	},
	{
		"buffer":2,
		"byteOffset":39540,
		"byteLength":632640,
		"target":34962,
		"byteStride":32
	}]
}